<?xml version="1.0" encoding="UTF-8"?>
<svg id="Layer_2" data-name="Layer 2" xmlns="http://www.w3.org/2000/svg" viewBox="0 0 1024 1024">
  <defs>
    <style>
      .cls-1 {
        fill: #000;
      }

      .cls-1, .cls-2 {
        stroke-width: 0px;
      }

      .cls-2 {
        fill: #fff;
      }
    </style>
  </defs>
  <g id="Layer_1-2" data-name="Layer 1">
    <circle class="cls-2" cx="512" cy="512" r="512"/>
    <g>
      <path class="cls-1" d="M288.75,738.82c-7.98-2.22-15.53-6.88-22.61-13.97-2.66,2.66-7.1,5.54-13.3,8.65-11.97,2.21-21.73-1.78-29.26-11.97-3.99-6.2-6.88-15.96-8.65-29.26l5.32-59.86,5.99-45.23c.44-3.99,1.55-15.96,3.33-35.92,1.77-19.95,3.99-34.8,6.65-44.56v-63.19c-1.78-1.77-4.32-6.54-7.65-14.3-3.33-7.75-4.99-12.74-4.99-14.97-2.22-14.63-2.22-30.15,0-46.56,1.33-3.1,3.88-5.76,7.65-7.98,3.76-2.21,8.75-4.1,14.97-5.65,6.2-1.55,9.75-2.55,10.64-2.99,16.4,3.55,27.71,4.88,33.92,3.99,9.31,0,19.17-1.1,29.6-3.33,10.41-2.21,18.62-4.32,24.61-6.32,5.99-2,15.63-5.32,28.93-9.98,13.3-4.66,22.17-7.87,26.6-9.64,5.76-1.33,15.18-3.66,28.27-6.98,13.07-3.33,24.16-5.76,33.26-7.32,9.08-1.55,19.39-2.33,30.93-2.33,4.87-.44,15.07.67,30.6,3.33l23.94,4.66,6.65,4.66c4.43,3.55,7.75,6.32,9.98,8.31,2.21,2,4.76,4.66,7.65,7.98,2.88,3.33,4.54,6.32,4.99,8.98v41.9c-1.78,3.55-5.88,6.22-12.3,7.98-6.43,1.78-12.09,1.99-16.96.66-1.78-.88-6.55-5.54-14.3-13.97-7.76-8.42-14.3-12.19-19.62-11.31-49.67-2.21-90.24,2-121.72,12.64-4.88,2.22-14.86,5.88-29.93,10.97-15.08,5.1-27.5,9.98-37.25,14.63-9.76,4.66-18.19,10.09-25.27,16.3l-4.66,3.99c-3.55,46.12-3.55,72.94,0,80.48,10.2-3.1,24.38-4.66,42.57-4.66h29.27c7.53-1.77,21.83-5.87,42.9-12.3,21.06-6.42,39.24-11.41,54.54-14.97,15.3-3.54,29.15-5.54,41.57-5.99,4.43,0,11.53-.1,21.28-.33,9.75-.22,17.84-.44,24.28-.66,6.42-.22,13.74.11,21.95,1,8.2.89,15.18,2.22,20.95,3.99,19.95,13.3,28.37,25.27,25.27,35.92,1.77,10.2-3.99,17.74-17.29,22.61-2.66,1.33-8.43.33-17.29-2.99-8.88-3.33-14.2-4.99-15.96-4.99-27.5-3.54-54.32-2.66-80.48,2.66-26.17,5.32-56.98,14.2-92.45,26.6-8.43,2.66-21.84,7.98-40.24,15.96-18.41,7.98-30.26,13.97-35.58,17.96-3.99.89-10.09.33-18.29-1.66-8.21-1.99-13.2-2.99-14.97-2.99-6.22,2.22-9.31,24.84-9.31,67.84,17.73-.88,33.81-1.66,48.22-2.33,14.4-.66,25.05-1,31.93-1s12.74-.1,17.63-.33c4.87-.22,7.98-.33,9.31-.33s2.43-.22,3.33-.66c10.2-2.21,28.37-4.09,54.54-5.65,26.16-1.55,40.34-2.33,42.57-2.33,35.02-1.77,71.39.89,109.08,7.98,6.2,2.22,10.97,6.1,14.3,11.64,3.33,5.55,4.09,11.64,2.33,18.29-3.55,4.88-7.76,9.09-12.64,12.64-18.62.45-43.79,2.44-75.49,5.99-31.71,3.55-54.21,5.77-67.51,6.65-3.11.45-11.42,1.78-24.94,3.99-13.53,2.22-26.27,4.44-38.24,6.65-11.97,2.22-20.4,4.22-25.27,5.99-3.99.45-10.31,2.22-18.96,5.32-8.65,3.11-14.3,4.21-16.96,3.33l-41.9,8.65Z"/>
      <g>
        <path class="cls-1" d="M752.55,399.36c-1.5,0-7.86-.62-19.08-1.87s-17.83-1.71-19.83-1.37c-16.96,1.5-30.26,2.08-39.91,1.75-12.14-.83-21.12-2.49-26.94-4.99-5.16-2.33-9.27-5.9-12.35-10.72-3.08-4.82-4.28-9.98-3.62-15.46-.5-8.81,1.08-16.79,4.74-23.94,8.98-20.12,15.3-36.42,18.95-48.89.66-5.65,2.83-12.43,6.49-20.33,3.66-7.9,5.74-14.26,6.24-19.08v-2.74c0-.5-.25-1.41-.75-2.74-.5-1.33-.83-2.16-1-2.49,2.49-6.98,4.57-11.14,6.24-12.47,5.82-2.33,9.64-3.49,11.47-3.49,3.16,0,5.65,1.66,7.48,4.99-2.33,12.47-4.41,21.95-6.24,28.43-2.49,10.14-7.44,25.4-14.84,45.77-7.4,20.37-11.35,31.39-11.85,33.05-1,2.33-1.58,4.7-1.75,7.11-.17,2.41-.17,5.11,0,8.11.16,2.99.16,5.32,0,6.98,1,1.66,4.74,3.74,11.22,6.24,5.15,1.83,10.73,2.74,16.71,2.74,5.49,0,9.64-.16,12.47-.5,15.13-1.16,27.19-2.41,36.17-3.74,1.83.17,2.99.12,3.49-.13.5-.25,1.79.13,3.87,1.12,2.08,1,3.37,1.62,3.87,1.87.5.25,1.75.96,3.74,2.12,2,1.17,3.08,1.83,3.24,1.99.33.34,1.25,1,2.74,2,1.5,1,2.53,1.79,3.12,2.37.58.58,1.2,1.5,1.87,2.74.66,1.25,1,2.62,1,4.12v.75c-1.17,4.66-3.33,8.23-6.49,10.72h-.5Z"/>
        <path class="cls-1" d="M804.93,612.86c-2.33.33-4.78.33-7.36,0-2.58-.34-4.95-1.5-7.11-3.49-3.49-1.83-6.15-4.12-7.98-6.86-1.83-2.74-3.41-6.45-4.74-11.1-1.33-4.65-2.33-7.73-2.99-9.23-1.83-4.49-3.58-10.81-5.24-18.96-1.66-8.15-3.33-14.38-4.99-18.71-.5-2.33-1.08-7.11-1.75-14.34-.67-7.23-1.66-12.6-2.99-16.09l-.25-1.99c-.5-4.32-1-6.48-1.5-6.48-1.5,2.83-3.12,6.45-4.86,10.85-1.75,4.41-3.62,9.52-5.61,15.34-2,5.82-3.49,10.06-4.49,12.72-3.83,5.16-9.06,8.07-15.71,8.73-6.32-4.15-12.39-11.72-18.21-22.7-.67-1.16-1.79-3.74-3.37-7.73-1.58-3.99-3.2-8.44-4.86-13.34-1.66-4.9-2.58-7.52-2.74-7.86l-4.24-14.47c-2.66,14.47-6.32,28.43-10.97,41.9-10.15,26.94-18.13,46.31-23.94,58.12-.17.17-.75.71-1.75,1.62-1,.92-1.62,1.46-1.87,1.62-.25.17-.92.67-2,1.5-1.08.83-1.75,1.25-2,1.25s-.96.29-2.12.87c-1.17.58-1.91.75-2.25.5-.33-.25-1.08-.29-2.24-.12-2.99-1-6.57-5.65-10.73-13.97-1.66-3.82-1.83-7.9-.5-12.22,4.49-2.99,9.81-9.73,15.96-20.2.83-2,2.74-6.49,5.74-13.47,2.99-6.98,5.19-12.18,6.61-15.59,1.41-3.41,3.03-7.98,4.86-13.72,1.83-5.74,3.24-11.01,4.24-15.84.83-3.32,2.08-11.14,3.74-23.45,1.66-12.3,3.49-21.03,5.49-26.19,2.49-3.32,4.65-4.99,6.49-4.99,1.16,0,2.91.5,5.24,1.5,3.49,1.33,6.27,3.04,8.36,5.11,2.08,2.08,4.2,5.03,6.36,8.85.16.5.58,1.29,1.25,2.37.66,1.08,1.25,2.04,1.75,2.87l.75,1.5,15.71,57.12c0,.5.66,1,2,1.5,1.83-1.83,4.07-6.4,6.73-13.72,2.66-7.32,4.49-11.97,5.49-13.97,4.32-9.31,7.07-21.36,8.23-36.17-.33-1.16-.17-2.45.5-3.87.66-1.41,1.75-3.07,3.24-4.99,1.5-1.91,2.33-2.95,2.49-3.12.66,0,2,.12,3.99.37,2,.25,3.82.54,5.49.87l2.74.5c.33.17,1.62,1.12,3.87,2.87,2.24,1.75,3.78,3.12,4.61,4.12,2,1.33,3.41,4.7,4.24,10.1.83,5.41,1.33,8.27,1.5,8.61.16,2.83.25,11.6.25,26.31s.75,23.66,2.24,26.81c1.33,17.96,6.65,40.24,15.96,66.84.33,1.17,1.87,3.95,4.61,8.36s4.2,7.11,4.36,8.11c.83,1.33.41,3.16-1.25,5.49-1.66,2.33-2.49,3.57-2.49,3.74Z"/>
        <path class="cls-1" d="M696.93,793.44c-19.29.5-35.5-2.16-48.64-7.98-4.49-1.33-7.65-2.91-9.48-4.74-6.32-4.65-9.48-9.89-9.48-15.71-.34-2.83.29-5.53,1.87-8.11,1.58-2.58,3.62-4.03,6.11-4.36,5.82-1.16,10.89.25,15.21,4.24.66.33,2.41,2,5.24,4.99,7.15,4.49,16.05,7.15,26.69,7.98,6.32,0,12.18.09,17.58.25,5.4.17,11.22-.16,17.46-1,6.24-.83,11.93-2.16,17.09-3.99,6.98-5.49,9.64-10.23,7.98-14.22-1-3.33-4.41-7.07-10.23-11.22-5.82-4.16-9.23-6.74-10.23-7.73-18.29-6.65-37.75-15.05-58.37-25.19-5.49-2.66-9.48-4.99-11.97-6.98-2.49-2-5.9-5.49-10.23-10.48-2-2.83-2.33-8.39-1-16.71,1-2.83,4.49-5.65,10.48-8.48.16,0,1.91-.5,5.24-1.5,3.32-1,5.24-1.5,5.74-1.5,2-1.5,4.28-2.95,6.86-4.36,2.58-1.41,4.9-2.62,6.98-3.62,2.08-1,4.82-2.2,8.23-3.62,3.41-1.41,5.99-2.45,7.73-3.12,1.75-.66,4.65-1.7,8.73-3.12,4.07-1.41,6.77-2.37,8.11-2.87,1.66-.5,5.15-1.87,10.48-4.12,5.32-2.24,10.18-4.15,14.59-5.74,4.4-1.58,7.69-2.53,9.85-2.87l14.47-1.5,9.73,4.74c1.5,1.17,2.45,2.46,2.87,3.87.41,1.41.58,3.28.5,5.61-.09,2.33-.13,3.91-.13,4.74-4.33,5.49-8.57,7.65-12.72,6.49-.34,0-1.42-.54-3.24-1.62-1.83-1.08-2.83-1.62-2.99-1.62-1-.16-2.25-.08-3.74.25-1.5.34-3.2.87-5.11,1.62-1.91.75-3.2,1.21-3.87,1.37-4.49,2.49-11.93,5.95-22.32,10.35-10.39,4.41-16.59,7.11-18.58,8.11-12.97,4.82-20.87,8.15-23.69,9.98v1.5c2.16,2.99,4.99,5.65,8.48,7.98,3.49,2.33,8.4,4.82,14.72,7.48,6.32,2.66,10.14,4.33,11.47,4.99,24.11,8.98,41.49,20.04,52.13,33.17,4.16,8.98,5.74,17.38,4.74,25.19-2.66,6.32-6.73,12.02-12.22,17.09-5.49,5.07-11.47,8.77-17.96,11.1-9.15,3.66-22.87,5.32-41.15,4.99Z"/>
      </g>
    </g>
  </g>
</svg>